<?xml version="1.0" encoding="UTF-8"?><svg id="Layer_2" xmlns="http://www.w3.org/2000/svg" viewBox="0 0 346.95 269.86"><defs><style>.cls-1{fill:#00add4;}.cls-2{fill:#302d2d;}</style></defs><g id="Layer_1-2"><g><path class="cls-1" d="M278.79,174.51L178.4,2.88c-2.24-3.84-7.79-3.84-10.04,0L83.06,148.74c-1.5,2.57,1.21,5.53,3.9,4.27,1.1-.52,2.38-1.04,3.78-1.56l-.03,.06s2.33-.9,6.27-2.15c4.34-1.33,9.1-2.6,13.4-3.66,12.05-2.78,27.84-5.05,42.07-2.68,13.1,2.17,22.23,5.69,28.87,9.14,3.05,1.58,5.93-2.39,3.46-4.79-9.53-9.26-24.19-20.44-46.49-25.12-.98-.21-1.47-1.31-.96-2.17l33.59-57.42c1.1-1.89,3.83-1.89,4.93,0l64.14,109.67c1.35,2.31,.22,5.26-2.32,6.11-5.03,1.68-11.03,2.94-17.75,2.94-4.28,0-8.58-.5-12.89-1.51,0,0-12.43-1.96-29.04-11.87-16.61-9.91-48.65-22.56-84.59-2.09-15.31,9.84-25.52,23.3-30.9,31.75-.84,1.32,.61,2.9,2,2.16,12.35-6.6,45.65-22.18,75.65-16.58,17.84,3.33,38.22,16.79,59.4,24.51h0c35.05,12.99,69.41-8.77,69.48-8.82,3.63-2.4,5.77-4.23,6.13-4.54l.44-.38c5.6-4.89,6.94-13.06,3.18-19.48Z"/><g><path class="cls-2" d="M0,268.54v-37.6c0-.37,.13-.68,.38-.93,.26-.26,.57-.38,.93-.38h15.01c5.75,0,10.46,1.69,14.13,5.06,1.98,1.83,3.48,4.01,4.51,6.54,1.02,2.53,1.54,5.37,1.54,8.52s-.51,6-1.54,8.55c-1.03,2.55-2.53,4.74-4.51,6.57-1.83,1.65-3.93,2.9-6.3,3.74-2.36,.84-4.97,1.26-7.83,1.26H1.32c-.37,0-.68-.13-.93-.38-.26-.26-.38-.57-.38-.93Zm12.2-8.8h4.12c1.02,0,2.09-.13,3.19-.38,1.1-.26,2.09-.74,2.97-1.46,.88-.71,1.6-1.72,2.17-3.02,.57-1.3,.85-3,.85-5.09s-.29-3.78-.85-5.09c-.57-1.3-1.3-2.31-2.2-3.02-.9-.71-1.89-1.2-2.97-1.46-1.08-.26-2.14-.38-3.16-.38h-4.12c-.37,0-.68,.13-.93,.38-.26,.26-.38,.57-.38,.93v17.26c0,.37,.13,.68,.38,.93,.26,.26,.57,.38,.93,.38Z"/><path class="cls-2" d="M52.23,241.05v2.31c0,.37,.13,.68,.38,.93,.26,.26,.57,.38,.93,.38h14.9c.37,0,.68,.13,.93,.38s.38,.57,.38,.93v7.59c0,.37-.13,.68-.38,.93-.26,.26-.57,.38-.93,.38h-14.9c-.37,0-.68,.13-.93,.38s-.38,.57-.38,.93v2.09c0,.37,.13,.68,.38,.93,.26,.26,.57,.38,.93,.38h17.1c.37,0,.68,.13,.93,.38,.26,.26,.39,.57,.39,.93v7.59c0,.37-.13,.68-.39,.93-.26,.26-.57,.38-.93,.38h-27.98c-.37,0-.68-.13-.93-.38-.26-.26-.38-.57-.38-.93v-37.6c0-.37,.13-.68,.38-.93,.26-.26,.57-.38,.93-.38h27.98c.37,0,.68,.13,.93,.38,.26,.26,.39,.57,.39,.93v7.48c0,.37-.13,.68-.39,.93-.26,.26-.57,.38-.93,.38h-17.1c-.37,0-.68,.13-.93,.38-.26,.26-.38,.57-.38,.93Z"/><path class="cls-2" d="M108.96,261.06v7.48c0,.37-.13,.68-.38,.93-.26,.26-.57,.38-.93,.38h-27.43c-.4,0-.72-.13-.96-.38-.24-.26-.36-.57-.36-.93v-37.6c0-.37,.12-.68,.36-.93,.24-.26,.56-.38,.96-.38h8.25c.37,0,.68,.13,.93,.38,.26,.26,.39,.57,.39,.93v27.49c0,.37,.12,.68,.36,.93,.24,.26,.56,.38,.96,.38h16.55c.37,0,.68,.13,.93,.38,.26,.26,.38,.57,.38,.93Z"/><path class="cls-2" d="M134.53,239.73h-7.7c-.37,0-.68,.13-.93,.38-.26,.26-.38,.57-.38,.93v27.49c0,.37-.12,.68-.36,.93-.24,.26-.56,.38-.96,.38h-8.25c-.37,0-.68-.13-.93-.38-.26-.26-.39-.57-.39-.93v-27.49c0-.37-.12-.68-.36-.93-.24-.26-.56-.38-.96-.38h-7.81c-.37,0-.68-.13-.93-.38-.26-.26-.39-.57-.39-.93v-7.48c0-.37,.13-.68,.39-.93,.26-.26,.57-.38,.93-.38h29.03c.4,0,.72,.13,.96,.38,.24,.26,.36,.57,.36,.93v7.48c0,.37-.12,.68-.36,.93-.24,.26-.56,.38-.96,.38Z"/><path class="cls-2" d="M147.67,230.88c.15-.33,.39-.61,.74-.85,.35-.24,.72-.36,1.13-.36h7.7c.36,0,.72,.12,1.07,.36,.35,.24,.59,.52,.74,.85l16.05,37.38c.15,.33,.12,.68-.08,1.04-.2,.37-.6,.55-1.18,.55h-9.4c-.4,0-.78-.12-1.13-.36-.35-.24-.61-.52-.8-.85l-1.48-3.3c-.18-.33-.45-.61-.8-.85-.35-.24-.71-.36-1.07-.36h-11.6c-.4,0-.78,.12-1.13,.36-.35,.24-.6,.52-.74,.85l-1.54,3.3c-.15,.33-.39,.61-.74,.85-.35,.24-.71,.36-1.07,.36h-9.46c-.18,0-.37-.04-.58-.11s-.37-.18-.5-.33c-.13-.15-.21-.33-.25-.55-.04-.22,.02-.48,.16-.77l15.94-37.22Zm3.24,23.91h4.89c.37,0,.63-.12,.8-.36,.16-.24,.15-.52-.03-.85-.37-.92-.81-1.99-1.32-3.22-.51-1.23-.99-2.37-1.43-3.44-.15-.33-.31-.49-.5-.49s-.35,.16-.49,.49l-2.75,6.65c-.15,.33-.15,.61,0,.85,.15,.24,.42,.36,.82,.36Z"/><path class="cls-2" d="M227.76,261.06v7.48c0,.37-.13,.68-.39,.93-.26,.26-.57,.38-.93,.38h-27.43c-.4,0-.72-.13-.96-.38-.24-.26-.36-.57-.36-.93v-37.6c0-.37,.12-.68,.36-.93,.24-.26,.56-.38,.96-.38h8.25c.36,0,.68,.13,.93,.38,.26,.26,.38,.57,.38,.93v27.49c0,.37,.12,.68,.36,.93,.24,.26,.56,.38,.96,.38h16.55c.37,0,.68,.13,.93,.38,.26,.26,.39,.57,.39,.93Z"/><path class="cls-2" d="M244.69,230.88c.15-.33,.39-.61,.74-.85,.35-.24,.72-.36,1.13-.36h7.7c.36,0,.72,.12,1.07,.36,.35,.24,.59,.52,.74,.85l16.05,37.38c.15,.33,.12,.68-.08,1.04-.2,.37-.6,.55-1.18,.55h-9.4c-.4,0-.78-.12-1.13-.36-.35-.24-.61-.52-.8-.85l-1.48-3.3c-.18-.33-.45-.61-.8-.85-.35-.24-.71-.36-1.07-.36h-11.6c-.4,0-.78,.12-1.13,.36-.35,.24-.6,.52-.74,.85l-1.54,3.3c-.15,.33-.39,.61-.74,.85-.35,.24-.71,.36-1.07,.36h-9.46c-.18,0-.37-.04-.58-.11s-.37-.18-.5-.33c-.13-.15-.21-.33-.25-.55-.04-.22,.02-.48,.16-.77l15.94-37.22Zm3.24,23.91h4.89c.37,0,.63-.12,.8-.36,.16-.24,.15-.52-.03-.85-.37-.92-.81-1.99-1.32-3.22-.51-1.23-.99-2.37-1.43-3.44-.15-.33-.31-.49-.5-.49s-.35,.16-.49,.49l-2.75,6.65c-.15,.33-.15,.61,0,.85,.15,.24,.42,.36,.82,.36Z"/><path class="cls-2" d="M298.57,268.87l-10.67-11.93c-.26-.29-.47-.4-.63-.33-.17,.07-.25,.29-.25,.66v11.27c0,.37-.13,.68-.38,.93-.26,.26-.57,.38-.93,.38h-8.25c-.4,0-.72-.13-.96-.38-.24-.26-.36-.57-.36-.93v-37.6c0-.37,.12-.68,.36-.93,.24-.26,.56-.38,.96-.38h8.25c.37,0,.68,.13,.93,.38,.26,.26,.38,.57,.38,.93v12.64c0,.37,.07,.58,.22,.63,.15,.05,.33-.06,.55-.36l9.9-13.14c.22-.29,.53-.54,.93-.74s.81-.3,1.21-.3h10.5c.4,0,.66,.17,.77,.52,.11,.35,.05,.67-.16,.96l-14.46,18.09c-.22,.29-.32,.63-.3,1.02,.02,.38,.16,.71,.41,.96,1.24,1.36,2.56,2.77,3.96,4.23,1.39,1.47,2.78,2.94,4.15,4.43,1.38,1.48,2.73,2.95,4.07,4.4,1.34,1.45,2.61,2.79,3.82,4.04,.26,.29,.35,.62,.27,.99-.07,.37-.31,.55-.72,.55h-11.38c-.4,0-.82-.09-1.24-.28-.42-.18-.74-.42-.96-.71Z"/><path class="cls-2" d="M327.21,241.05v2.31c0,.37,.13,.68,.39,.93,.26,.26,.57,.38,.93,.38h14.9c.36,0,.68,.13,.93,.38,.26,.26,.38,.57,.38,.93v7.59c0,.37-.13,.68-.38,.93-.26,.26-.57,.38-.93,.38h-14.9c-.37,0-.68,.13-.93,.38-.26,.26-.39,.57-.39,.93v2.09c0,.37,.13,.68,.39,.93,.26,.26,.57,.38,.93,.38h17.1c.37,0,.68,.13,.93,.38,.26,.26,.38,.57,.38,.93v7.59c0,.37-.13,.68-.38,.93-.26,.26-.57,.38-.93,.38h-27.98c-.37,0-.68-.13-.93-.38-.26-.26-.39-.57-.39-.93v-37.6c0-.37,.13-.68,.39-.93,.26-.26,.57-.38,.93-.38h27.98c.37,0,.68,.13,.93,.38,.26,.26,.38,.57,.38,.93v7.48c0,.37-.13,.68-.38,.93-.26,.26-.57,.38-.93,.38h-17.1c-.37,0-.68,.13-.93,.38-.26,.26-.39,.57-.39,.93Z"/></g></g></g></svg>