<?xml version="1.0" encoding="UTF-8"?><svg id="Layer_1" xmlns="http://www.w3.org/2000/svg" viewBox="0 0 100 100"><defs><style>.cls-1{fill:none;}.cls-2{fill:#00add4;}.cls-3{fill:#0a6980;}</style></defs><rect class="cls-1" width="100" height="100"/><g><path class="cls-3" d="M83.97,32.57c4.24,0,7.69,3.44,7.69,7.69s-3.44,7.69-7.69,7.69c-1.96,0-3.75-.74-5.11-1.96l-10.9,7.19c.26,.77,.41,1.59,.41,2.45s-.15,1.7-.42,2.48l10.93,7.29c1.36-1.2,3.13-1.93,5.08-1.93,4.24,0,7.69,3.44,7.69,7.69s-3.44,7.69-7.69,7.69-7.69-3.44-7.69-7.69c0-.87,.15-1.7,.42-2.48l-10.93-7.29c-1.36,1.2-3.13,1.93-5.08,1.93-4.24,0-7.69-3.44-7.69-7.69s3.44-7.69,7.69-7.69c1.96,0,3.75,.74,5.11,1.96l10.9-7.19c-.26-.77-.41-1.59-.41-2.45,0-4.24,3.44-7.69,7.69-7.69"/><g><path class="cls-2" d="M16.52,63.98c.37-.17,.79-.34,1.25-.52v.02s.76-.3,2.07-.71c1.44-.44,3.01-.86,4.44-1.21,3.99-.92,9.21-1.67,13.92-.89,4.34,.72,7.36,1.88,9.55,3.02,1.01,.52,1.96-.79,1.15-1.58-3.15-3.06-8-6.76-15.37-8.31-.33-.07-.5-.43-.33-.72l11.11-19c.37-.62,1.27-.62,1.63,0l6.82,11.66c.32,.54,1.02,.7,1.55,.35,1.83-1.23,4.02-1.94,6.38-1.94,.92,0,1.83,.11,2.71,.33,.45,.11,.82-.37,.58-.77L46.78,14.3c-.74-1.27-2.58-1.27-3.32,0L15.23,62.57c-.5,.85,.4,1.83,1.29,1.41Z"/><path class="cls-2" d="M68.35,72.25c-.42-.38-1.07-.46-1.5-.11-.13,.11-.28,.19-.45,.25-1.66,.56-3.65,.97-5.87,.97-1.41,0-2.84-.17-4.27-.5,0,0-4.11-.65-9.61-3.93-5.5-3.28-16.1-7.46-27.99-.69-5.07,3.26-8.45,7.72-10.23,10.51-.28,.43,.21,.95,.66,.71,4.09-2.18,15.11-7.34,25.04-5.49,5.9,1.1,12.65,5.56,19.66,8.11,8.89,3.29,17.65-.17,21.26-1.97,.6-.3,.71-1.1,.21-1.55l-6.91-6.32Z"/></g></g></svg>