<?xml version="1.0" encoding="UTF-8"?><svg id="Layer_2" xmlns="http://www.w3.org/2000/svg" viewBox="0 0 457.54 93.81"><defs><style>.cls-1{fill:#00add4;}.cls-2{fill:#fff;}</style></defs><g id="Layer_1-2"><g><path class="cls-1" d="M95.87,77.27L51.43,1.27c-.99-1.7-3.45-1.7-4.44,0L9.21,65.85c-.66,1.14,.53,2.45,1.73,1.89,.49-.23,1.05-.46,1.67-.69v.03s1.02-.4,2.76-.95c1.92-.59,4.03-1.15,5.93-1.62,5.33-1.23,12.33-2.23,18.63-1.19,5.8,.96,9.84,2.52,12.78,4.05,1.35,.7,2.62-1.06,1.53-2.12-4.22-4.1-10.71-9.05-20.58-11.12-.43-.09-.65-.58-.43-.96l14.87-25.42c.49-.84,1.7-.84,2.18,0l28.4,48.56c.6,1.02,.1,2.33-1.03,2.7-2.23,.74-4.88,1.3-7.86,1.3-1.89,0-3.8-.22-5.71-.67,0,0-5.5-.87-12.86-5.26-7.36-4.39-21.54-9.99-37.45-.92-6.78,4.36-11.3,10.32-13.68,14.06-.37,.59,.27,1.28,.88,.96,5.47-2.92,20.21-9.82,33.5-7.34,7.9,1.47,16.92,7.43,26.3,10.85h0c15.52,5.75,30.73-3.88,30.76-3.9,1.61-1.06,2.55-1.87,2.71-2.01l.19-.17c2.48-2.16,3.07-5.79,1.41-8.62h0Z"/><path class="cls-2" d="M122.8,56.91h4.12c1.03,0,2.09-.13,3.19-.38,1.1-.26,2.09-.74,2.97-1.46,.88-.71,1.6-1.72,2.17-3.02,.57-1.3,.85-3,.85-5.09s-.29-3.78-.85-5.09c-.57-1.3-1.3-2.31-2.2-3.02-.9-.71-1.89-1.2-2.97-1.46-1.08-.26-2.14-.38-3.16-.38h-4.12c-.37,0-.68,.13-.93,.38-.26,.26-.38,.57-.38,.93v17.26c0,.37,.13,.68,.38,.93,.26,.26,.57,.38,.93,.38h0Zm-12.2,8.8V28.1c0-.37,.13-.68,.38-.93,.26-.26,.57-.39,.93-.39h15.01c5.75,0,10.46,1.69,14.13,5.06,1.98,1.83,3.48,4.01,4.51,6.54,1.02,2.53,1.54,5.37,1.54,8.52s-.51,6-1.54,8.55c-1.03,2.55-2.53,4.74-4.51,6.57-1.83,1.65-3.93,2.9-6.29,3.74-2.36,.84-4.98,1.26-7.83,1.26h-15.01c-.37,0-.68-.13-.93-.38-.26-.26-.38-.57-.38-.93h0Z"/><path class="cls-2" d="M162.82,38.22v2.31c0,.37,.13,.68,.38,.93,.26,.26,.57,.38,.93,.38h14.9c.37,0,.68,.13,.93,.38,.26,.26,.38,.57,.38,.93v7.59c0,.37-.13,.68-.38,.93-.26,.26-.57,.39-.93,.39h-14.9c-.37,0-.68,.13-.93,.38-.26,.26-.38,.57-.38,.93v2.09c0,.37,.13,.68,.38,.93,.26,.26,.57,.38,.93,.38h17.1c.37,0,.68,.13,.93,.39,.26,.26,.39,.57,.39,.93v7.59c0,.37-.13,.68-.39,.93-.26,.26-.57,.38-.93,.38h-27.98c-.37,0-.68-.13-.93-.38-.26-.26-.38-.57-.38-.93V28.1c0-.37,.13-.68,.38-.93,.26-.26,.57-.39,.93-.39h27.98c.37,0,.68,.13,.93,.39,.26,.26,.39,.57,.39,.93v7.48c0,.37-.13,.68-.39,.93-.26,.26-.57,.39-.93,.39h-17.1c-.37,0-.68,.13-.93,.38-.26,.26-.38,.57-.38,.93h0Z"/><path class="cls-2" d="M219.55,58.23v7.48c0,.37-.13,.68-.38,.93-.26,.26-.57,.38-.93,.38h-27.43c-.4,0-.72-.13-.96-.38-.24-.26-.36-.57-.36-.93V28.1c0-.37,.12-.68,.36-.93,.24-.26,.56-.39,.96-.39h8.25c.37,0,.68,.13,.93,.39,.26,.26,.39,.57,.39,.93v27.49c0,.37,.12,.68,.36,.93,.24,.26,.56,.38,.96,.38h16.55c.37,0,.68,.13,.93,.39,.25,.26,.38,.57,.38,.93h0Z"/><path class="cls-2" d="M245.12,36.9h-7.7c-.37,0-.68,.13-.93,.38-.26,.26-.38,.57-.38,.93v27.49c0,.37-.12,.68-.36,.93-.24,.26-.56,.38-.96,.38h-8.25c-.37,0-.68-.13-.93-.38-.26-.26-.39-.57-.39-.93v-27.49c0-.37-.12-.68-.36-.93-.24-.26-.56-.38-.96-.38h-7.81c-.37,0-.68-.13-.93-.39-.26-.26-.39-.57-.39-.93v-7.48c0-.37,.13-.68,.39-.93,.25-.26,.57-.39,.93-.39h29.03c.4,0,.72,.13,.96,.39,.24,.26,.36,.57,.36,.93v7.48c0,.37-.12,.68-.36,.93-.24,.26-.56,.39-.96,.39h0Z"/><path class="cls-2" d="M261.5,51.96h4.89c.37,0,.63-.12,.8-.36,.16-.24,.15-.52-.03-.85-.37-.92-.81-1.99-1.32-3.22-.51-1.23-.99-2.37-1.43-3.44-.15-.33-.31-.5-.5-.5s-.35,.16-.49,.5l-2.75,6.65c-.15,.33-.15,.61,0,.85,.15,.24,.42,.36,.83,.36h0Zm-3.24-23.91c.15-.33,.39-.61,.74-.85,.35-.24,.72-.36,1.13-.36h7.7c.36,0,.72,.12,1.07,.36,.35,.24,.59,.52,.74,.85l16.05,37.38c.14,.33,.12,.68-.08,1.04-.2,.37-.6,.55-1.18,.55h-9.4c-.4,0-.78-.12-1.13-.36-.35-.24-.61-.52-.8-.85l-1.48-3.3c-.18-.33-.45-.61-.8-.85-.35-.24-.71-.36-1.07-.36h-11.6c-.4,0-.78,.12-1.13,.36-.35,.24-.6,.52-.74,.85l-1.54,3.3c-.15,.33-.39,.61-.74,.85-.35,.24-.71,.36-1.07,.36h-9.46c-.18,0-.37-.04-.58-.11-.2-.07-.37-.18-.49-.33-.13-.15-.21-.33-.25-.55-.04-.22,.02-.48,.16-.77l15.94-37.22h0Z"/><path class="cls-2" d="M338.36,58.23v7.48c0,.37-.13,.68-.39,.93-.26,.26-.57,.38-.94,.38h-27.43c-.4,0-.72-.13-.96-.38-.24-.26-.36-.57-.36-.93V28.1c0-.37,.12-.68,.36-.93,.24-.26,.56-.39,.96-.39h8.25c.36,0,.68,.13,.93,.39,.25,.26,.38,.57,.38,.93v27.49c0,.37,.12,.68,.36,.93,.24,.26,.56,.38,.96,.38h16.55c.37,0,.68,.13,.94,.39,.26,.26,.39,.57,.39,.93h0Z"/><path class="cls-2" d="M358.53,51.96h4.89c.37,0,.63-.12,.8-.36,.16-.24,.16-.52-.03-.85-.37-.92-.81-1.99-1.32-3.22-.51-1.23-.99-2.37-1.43-3.44-.15-.33-.31-.5-.5-.5s-.35,.16-.49,.5l-2.75,6.65c-.15,.33-.15,.61,0,.85,.14,.24,.42,.36,.82,.36h0Zm-3.24-23.91c.15-.33,.39-.61,.74-.85,.35-.24,.72-.36,1.13-.36h7.7c.36,0,.72,.12,1.07,.36,.35,.24,.59,.52,.74,.85l16.05,37.38c.14,.33,.12,.68-.08,1.04-.2,.37-.6,.55-1.18,.55h-9.4c-.4,0-.78-.12-1.13-.36-.35-.24-.61-.52-.8-.85l-1.48-3.3c-.18-.33-.45-.61-.8-.85-.35-.24-.71-.36-1.07-.36h-11.6c-.4,0-.78,.12-1.13,.36-.35,.24-.6,.52-.74,.85l-1.54,3.3c-.15,.33-.39,.61-.74,.85-.35,.24-.71,.36-1.07,.36h-9.46c-.18,0-.37-.04-.58-.11-.2-.07-.37-.18-.5-.33-.13-.15-.21-.33-.25-.55-.04-.22,.02-.48,.16-.77l15.94-37.22h0Z"/><path class="cls-2" d="M409.16,66.04l-10.67-11.93c-.26-.29-.47-.4-.63-.33-.17,.07-.25,.29-.25,.66v11.27c0,.37-.13,.68-.38,.93-.26,.26-.57,.38-.94,.38h-8.25c-.4,0-.72-.13-.96-.38-.24-.26-.36-.57-.36-.93V28.1c0-.37,.12-.68,.36-.93,.24-.26,.56-.39,.96-.39h8.25c.37,0,.68,.13,.94,.39,.26,.26,.38,.57,.38,.93v12.64c0,.37,.07,.58,.22,.63,.15,.05,.33-.06,.55-.36l9.9-13.14c.22-.29,.53-.54,.93-.74,.4-.2,.81-.3,1.21-.3h10.5c.4,0,.66,.17,.77,.52,.11,.35,.05,.67-.16,.96l-14.46,18.09c-.22,.29-.32,.63-.3,1.02,.02,.39,.16,.71,.41,.96,1.24,1.36,2.56,2.77,3.96,4.23,1.39,1.47,2.78,2.94,4.15,4.43,1.37,1.48,2.73,2.95,4.07,4.4,1.34,1.45,2.61,2.79,3.82,4.04,.25,.29,.35,.62,.27,.99-.07,.37-.31,.55-.72,.55h-11.38c-.4,0-.81-.09-1.24-.27-.42-.18-.74-.42-.96-.71h0Z"/><path class="cls-2" d="M437.81,38.22v2.31c0,.37,.13,.68,.39,.93,.26,.26,.57,.38,.93,.38h14.9c.36,0,.68,.13,.94,.38,.25,.26,.38,.57,.38,.93v7.59c0,.37-.13,.68-.38,.93-.26,.26-.57,.39-.94,.39h-14.9c-.37,0-.68,.13-.93,.38-.26,.26-.39,.57-.39,.93v2.09c0,.37,.13,.68,.39,.93,.26,.26,.57,.38,.93,.38h17.1c.37,0,.68,.13,.94,.39,.26,.26,.38,.57,.38,.93v7.59c0,.37-.13,.68-.38,.93-.26,.26-.57,.38-.94,.38h-27.98c-.37,0-.68-.13-.93-.38-.26-.26-.39-.57-.39-.93V28.1c0-.37,.13-.68,.39-.93,.25-.26,.57-.39,.93-.39h27.98c.37,0,.68,.13,.94,.39,.26,.26,.38,.57,.38,.93v7.48c0,.37-.13,.68-.38,.93-.26,.26-.57,.39-.94,.39h-17.1c-.37,0-.68,.13-.93,.38-.26,.26-.39,.57-.39,.93h0Z"/></g></g></svg>