<?xml version="1.0" encoding="UTF-8"?><svg id="Layer_1" xmlns="http://www.w3.org/2000/svg" viewBox="0 0 85.33 70.13"><defs><style>.cls-1{fill:#00add4;}.cls-2{fill:#e77215;}</style></defs><g><path class="cls-1" d="M50.12,22.37c.37-.14,.53-.58,.33-.92l-1.37-2.34L38.46,.95c-.74-1.27-2.58-1.27-3.32,0L6.9,49.23c-.5,.85,.4,1.83,1.29,1.41,.37-.17,.79-.34,1.25-.52v.02s.76-.3,2.07-.71c1.44-.44,3.01-.86,4.44-1.21,3.99-.92,9.21-1.67,13.93-.89,4.34,.72,7.36,1.88,9.56,3.02,1.01,.52,1.96-.79,1.15-1.58-3.15-3.06-8-6.76-15.38-8.31-.33-.07-.5-.43-.33-.72l11.12-19.01c.37-.62,1.27-.62,1.63,0l1.5,2.56,1.11,1.9c.24,.42,.75,.6,1.2,.43l8.69-3.24Z"/><path class="cls-1" d="M58.17,58.97c-2.2,1.24-4.14,1.06-5.97,1.06-1.42,0-2.84-.17-4.27-.5,0,0-4.11-.65-9.61-3.93-5.5-3.28-16.1-7.47-28-.69C5.24,58.17,1.86,62.64,.08,65.43c-.28,.43,.2,.95,.65,.71,4.07-2.18,15.11-7.35,25.06-5.5,5.9,1.1,12.65,5.56,19.66,8.11h0c11.6,4.3,22.97-2.9,23-2.92,1.2-.79,1.91-1.4,2.03-1.5l.15-.13c1.85-1.62,2.3-4.32,1.05-6.45h0l-3.8-6.5c-.39-.66-1.31-.76-1.82-.18l-3.98,4.49s-2.28,2.48-3.91,3.4Z"/></g><path class="cls-2" d="M83.33,17.55c-.76-.14-1.51-.07-2.25,.12-3.59,.95-7.17,1.89-10.75,2.85-.32,.09-.47,.03-.64-.26-1.45-2.44-2.91-4.88-4.4-7.3-.34-.55-.73-1.09-1.18-1.54-1.35-1.35-3.13-1.29-4.4,.12-.35,.39-.65,.85-.9,1.31-.64,1.21-.77,2.57-1.01,3.89-.45,2.47-.89,4.95-1.32,7.43-.05,.29-.18,.41-.44,.5-3.21,1.01-6.43,2.02-9.63,3.06-.7,.23-1.4,.53-2.02,.92-1.89,1.21-2.17,3.19-.75,4.92,.63,.77,1.44,1.3,2.33,1.7,0,0,4.74,1.97,7.35,2.98,.14,.06,.21,.2,.19,.33-.52,4.13-1.02,8.25-1.53,12.38-.11,.9-.15,1.79,.07,2.68,.47,1.95,1.98,2.73,3.79,1.96,.83-.35,1.51-.91,2.11-1.58,2.37-2.69,6.22-7.09,9.12-10.4,.13-.14,.24-.2,.52-.12,2.55,.75,6.27,1.83,8.07,2.39,.92,.28,1.84,.49,2.82,.35,1.76-.26,3.05-1.7,3.03-3.47,0-.78-.28-1.48-.64-2.16-1.49-2.83-2.97-5.66-4.47-8.48-.14-.27-.14-.44,.07-.68,2.51-2.94,5.01-5.88,7.51-8.82,.49-.58,.93-1.19,1.19-1.92,.56-1.6-.16-2.85-1.82-3.16Zm-5.42,5.74c-2.29,2.69-4.57,5.38-6.87,8.07-.2,.23-.22,.4-.07,.67,1.46,2.74,2.9,5.48,4.34,8.23,.05,.1,.1,.21,.2,.42-2.65-.73-6.93-1.9-9.49-2.6-2.22,2.54-4.69,5.43-6.92,7.96-.54,.61-1.08,1.22-1.62,1.82-.08-.19-.07-.33-.05-.48,.46-3.73,1.43-12.4,1.53-12.48-2.71-1.08-6.56-2.56-9.24-3.62,.15-.14,.29-.2,.44-.24,3.27-1.04,6.53-2.07,9.8-3.1,.23-.07,.36-.17,.38-.42,.02-.27,.09-.54,.14-.8,.44-2.48,.88-4.95,1.32-7.43,.12-.7,.25-1.4,.38-2.1,.17,.11,.26,.25,.34,.38,1.58,2.63,3.17,5.25,4.74,7.88,.13,.21,.25,.29,.5,.22,2.77-.75,5.55-1.48,8.32-2.21,.67-.18,1.34-.35,2.01-.52-.03,.17-.1,.27-.18,.36Z"/></svg>