<?xml version="1.0" encoding="UTF-8"?>
<svg width="100px" height="34px" viewBox="0 0 100 34" version="1.1" xmlns="http://www.w3.org/2000/svg" xmlns:xlink="http://www.w3.org/1999/xlink">
    <title>Combined Shape</title>
    <g id="Symbols" stroke="none" stroke-width="1" fill="none" fill-rule="evenodd">
        <g id="FOOTER" transform="translate(-110.000000, -200.000000)" fill="#748693">
            <g transform="translate(-1.000000, 0.000000)" id="linux-foundation-svg">
                <g>
                    <g transform="translate(111.000000, 200.000000)">
                        <path d="M46.8673188,25.5838579 C49.1474412,25.5838579 50.2870787,27.3717495 50.2870787,29.3644068 C50.2870787,31.3562179 49.1474412,33.1458018 46.8673188,33.1458018 C44.5770286,33.1458018 43.4373911,31.3562179 43.4373911,29.3644068 C43.4373911,27.3717495 44.5770286,25.5838579 46.8673188,25.5838579 Z M89.1614288,25.5838579 C91.4415512,25.5838579 92.5811888,27.3717495 92.5811888,29.3644068 C92.5811888,31.3562179 91.4415512,33.1458018 89.1614288,33.1458018 C86.8711387,33.1458018 85.7315011,31.3562179 85.7315011,29.3644068 C85.7315011,27.3717495 86.8711387,25.5838579 89.1614288,25.5838579 Z M51.987723,25.735909 L51.987723,30.228907 C51.987723,31.9051083 52.7706413,32.5566353 54.1144815,32.5566353 C55.4693369,32.5566353 56.2522552,31.9051083 56.2522552,30.228907 L56.2522552,25.735909 L56.9445108,25.735909 L56.9445108,30.3803658 C56.9445108,31.8746473 56.1404097,33.145548 54.1144815,33.145548 C52.1105835,33.145548 51.2963146,31.8746473 51.2963146,30.3803658 L51.2963146,25.735909 L51.987723,25.735909 Z M6.5487217,13.4113027 L6.5487217,26.4646885 L19.616848,26.4646885 L19.616848,32.9926507 L-0.000169462833,32.9926507 L-0.000169462833,13.4113027 L6.5487217,13.4113027 Z M42.9681485,25.7359937 L42.9681485,26.3265987 L39.0501678,26.3265987 L39.0501678,28.9462449 L42.5309344,28.9462449 L42.5309344,29.5368499 L39.0501678,29.5368499 L39.0501678,32.9924815 L38.3579121,32.9924815 L38.3579121,25.7359937 L42.9681485,25.7359937 Z M84.6017771,25.7359937 L84.6017771,32.9924815 L83.9095215,32.9924815 L83.9095215,25.7359937 L84.6017771,25.7359937 Z M32.6851438,0.346747749 L32.6851438,32.9924815 L22.8868028,32.9924815 L22.8868028,26.4645193 L26.150657,26.4645193 L26.150657,6.90347862 L6.5395707,6.90347862 L6.5395707,10.1399602 L0.00508388497,10.1399602 L0.00508388497,0.346747749 L32.6851438,0.346747749 Z M94.4248597,25.735909 L98.6588885,31.8746473 L98.6800714,31.8746473 L98.6800714,25.735909 L99.3706324,25.735909 L99.3706324,32.9923968 L98.5978819,32.9923968 L94.3638531,26.8536586 L94.3435175,26.8536586 L94.3435175,32.9923968 L93.6512618,32.9923968 L93.6512618,25.735909 L94.4248597,25.735909 Z M83.1765947,25.735909 L83.1765947,26.3248218 L80.6431254,26.3248218 L80.6431254,32.9923968 L79.9500224,32.9923968 L79.9500224,26.3248218 L77.4157057,26.3248218 L77.4157057,25.735909 L83.1765947,25.735909 Z M59.1032131,25.735909 L63.337242,31.8746473 L63.3575775,31.8746473 L63.3575775,25.735909 L64.0489859,25.735909 L64.0489859,32.9923968 L63.2762354,32.9923968 L59.0422065,26.8536586 L59.021871,26.8536586 L59.021871,32.9923968 L58.3296153,32.9923968 L58.3296153,25.735909 L59.1032131,25.735909 Z M68.0201779,25.735909 C70.2181108,25.7866774 71.3577484,26.9661951 71.3577484,29.3641529 C71.3577484,31.7629569 70.2181108,32.9416285 68.0201779,32.9923968 L65.5053495,32.9923968 L65.5053495,25.735909 L68.0201779,25.735909 Z M75.3792709,25.735909 L78.2287884,32.9923968 L77.4865412,32.9923968 L76.6002506,30.7365903 L73.2931834,30.7365903 L72.4179079,32.9923968 L71.6748134,32.9923968 L74.605673,25.735909 L75.3792709,25.735909 Z M89.1614288,26.1727706 C87.2380257,26.1727706 86.4246041,27.7795885 86.4246041,29.3644068 C86.4246041,30.9500712 87.2380257,32.5551968 89.1614288,32.5551968 C91.0746642,32.5551968 91.8889331,30.9500712 91.8889331,29.3644068 C91.8889331,27.7795885 91.0746642,26.1727706 89.1614288,26.1727706 Z M46.8673188,26.1727706 C44.9439156,26.1727706 44.1296467,27.7795885 44.1296467,29.3644068 C44.1296467,30.9500712 44.9439156,32.5551968 46.8673188,32.5551968 C48.7805542,32.5551968 49.5948231,30.9500712 49.5948231,29.3644068 C49.5948231,27.7795885 48.7805542,26.1727706 46.8673188,26.1727706 Z M67.6744737,26.3248218 L66.1976051,26.3248218 L66.1976051,32.4034841 L67.6744737,32.4034841 C69.7597139,32.4034841 70.66634,31.5387301 70.66634,29.3641529 C70.66634,27.1895758 69.7597139,26.3248218 67.6744737,26.3248218 Z M74.961545,26.4272046 L73.5067066,30.1468315 L76.3663919,30.1468315 L74.961545,26.4272046 Z M76.3960479,9.88823383 L76.3963931,17.2280095 C76.4023858,18.4866491 76.5085147,19.9445955 78.3440231,19.9445955 C80.1738263,19.9445955 80.2348197,18.3806505 80.2368529,17.0939934 L80.236923,9.88823383 L84.2438716,9.88823383 L84.2438716,17.8529399 C84.2438716,21.4718763 82.3323309,23.1819232 78.3253822,23.1819232 C74.3201282,23.1819232 72.3890992,21.4718763 72.3890992,17.8529399 L72.3890992,9.88823383 L76.3960479,9.88823383 Z M42.3642677,9.88857229 L42.3642677,19.5447102 L48.1183781,19.5447102 L48.1183781,22.8725748 L38.3581663,22.8725748 L38.3581663,9.88857229 L42.3642677,9.88857229 Z M54.7466626,9.8886569 L54.7466626,22.8726594 L50.7405613,22.8726594 L50.7405613,9.8886569 L54.7466626,9.8886569 Z M61.8290228,9.88857229 L65.6165171,16.8353732 L65.6537989,16.8353732 L65.6537989,9.88857229 L69.4404459,9.88857229 L69.4404459,22.8725748 L65.5444954,22.8725748 L61.5561876,15.7802379 L61.5197531,15.7802379 L61.5197531,22.8725748 L57.7322588,22.8725748 L57.7322588,9.88857229 L61.8290228,9.88857229 Z M91.034671,9.88874152 L93.0012872,13.4162949 L94.9314688,9.88874152 L99.3747843,9.88874152 L95.2051513,15.998711 L99.8484329,22.872744 L95.0221314,22.872744 L92.801321,18.9991198 L90.5067943,22.872744 L85.9177408,22.872744 L90.6160978,15.962327 L86.336314,9.88874152 L91.034671,9.88874152 Z M44.1188011,0.470114811 L44.1188011,1.05987367 L41.5853318,1.05987367 L41.5853318,7.72744875 L40.8922288,7.72744875 L40.8922288,1.05987367 L38.3579121,1.05987367 L38.3579121,0.470114811 L44.1188011,0.470114811 Z M45.4934836,0.470114811 L45.4934836,3.62113633 L49.8088546,3.62113633 L49.8088546,0.470114811 L50.500263,0.470114811 L50.500263,7.72744875 L49.8088546,7.72744875 L49.8088546,4.21089519 L45.4934836,4.21089519 L45.4934836,7.72744875 L44.8020752,7.72744875 L44.8020752,0.470114811 L45.4934836,0.470114811 Z M56.9845888,0.470114811 L56.9845888,1.05987367 L52.65905,1.05987367 L52.65905,3.68205834 L56.710059,3.68205834 L56.710059,4.27266334 L52.65905,4.27266334 L52.65905,7.13768989 L57.0354276,7.13768989 L57.0354276,7.72744875 L51.968489,7.72744875 L51.968489,0.470114811 L56.9845888,0.470114811 Z" id="Combined-Shape"></path>
                    </g>
                </g>
            </g>
        </g>
    </g>
</svg>