<?xml version="1.0" encoding="UTF-8"?><svg id="Layer_1" xmlns="http://www.w3.org/2000/svg" viewBox="0 0 86.94 70.13"><defs><style>.cls-1{fill:#00add4;}.cls-2{fill:#0a6980;}</style></defs><g><path class="cls-1" d="M8.14,50.62c.37-.19,.74-.37,1.2-.56h0s.74-.28,2.04-.74c1.39-.46,3.06-.83,4.45-1.2,3.98-.93,9.17-1.67,13.89-.93,3.24,.56,5.74,1.3,7.69,2.13,1.76,.65,2.04-2.13,.65-2.78-3.06-2.5-7.32-5-13.06-6.21-.28-.09-.46-.46-.28-.74l11.11-18.99c.37-.65,1.3-.65,1.67,0l12.45,21.26c.13,.22,.42,.28,.63,.13,.43-.31,1.1-.81,1.47-1.11,.82-.67,1.63-1.33,2.54-2,.42-.31,.63-.82,.57-1.34-.24-1.99,0-3.97,.64-5.78,.14-.38,.11-.8-.09-1.15L38.43,.97c-.74-1.3-2.59-1.3-3.33,0L6.84,49.23c-.46,.83,.37,1.76,1.3,1.39Z"/><path class="cls-1" d="M71.58,57.75l-3.42-5.88c-.12-.2-.33-.34-.56-.37-2.55-.33-4.87-1.46-6.75-3.13-.22-.19-.54-.21-.77-.03-.42,.33-.83,.63-1.18,.98-.65,.56-1.39,1.11-2.13,1.67-.19,.14-.38,.28-.56,.41-.3,.2-.39,.6-.21,.91l2.72,4.69c.46,.74,.09,1.76-.74,2.04-1.67,.56-3.61,.93-5.83,.93-1.39,0-2.87-.19-4.26-.46,0,0-4.08-.65-9.63-3.89s-16.12-7.5-27.97-.74C5.18,58.12,1.84,62.56,.08,65.34c-.28,.46,.19,.93,.65,.74,4.08-2.22,15.1-7.32,25.01-5.46,5.93,1.11,12.6,5.56,19.63,8.15,11.58,4.26,22.97-2.87,22.97-2.87,1.2-.83,1.94-1.39,2.04-1.48l.19-.09c1.76-1.76,2.22-4.45,1.02-6.58h0Z"/></g><path class="cls-2" d="M86.77,32.83c-.37-.74-1.3-1.02-2.04-.65l-5.28,2.87h0l-.28-.56-2.5-4.63,5.28-2.87c.74-.37,1.02-1.3,.65-2.04s-1.3-1.02-2.04-.65l-5,2.69-1.48-2.69c-.28-.46-.65-.74-1.11-.93s-1.02-.09-1.48,.19l-7.97,4.35c-4.35,2.32-6.11,7.69-4.17,12.23-1.85,.83-3.52,2.32-5.09,3.52-.65,.56-1.3,1.02-1.85,1.48-2.78,2.13-7.32,2.5-9.17,2.22-1.11-.19-2.13,.65-2.32,1.67-.09,.46,0,.83,.19,1.3,.28,.56,.83,.93,1.48,1.02h1.76c2.78,0,7.22-.65,10.47-3.06,.65-.56,1.39-1.11,2.04-1.57,1.39-1.2,3.06-2.5,4.45-3.06,2.59,4.35,8.15,5.93,12.6,3.52l7.97-4.35c.46-.28,.74-.65,.93-1.11s.09-1.02-.19-1.48l-1.48-2.69-.28,.19,5.28-2.87c.74-.37,1.02-1.3,.65-2.04Z"/></svg>